# This file uses centimeters as units for non-parametric coordinates.

mtllib Street.mtl
g default
v -10.000000 0.000000 7.500000
v 10.000000 0.000000 7.500000
v -10.000000 0.250000 7.500000
v 10.000000 0.250000 7.500000
v -10.000000 0.250000 -7.500000
v 10.000000 0.250000 -7.500000
v -10.000000 0.000000 -7.500000
v 10.000000 0.000000 -7.500000
vt 0.984459 0.469421
vt 0.984459 0.001878
vt 0.992251 0.001878
vt 0.992251 0.469421
vt 0.990216 0.940955
vt 0.990216 0.473412
vt 0.998008 0.473412
vt 0.998008 0.940955
vt 0.017779 0.625268
vt 0.017779 0.001878
vt 0.485321 0.001878
vt 0.485321 0.625268
vt 0.508914 0.625268
vt 0.508914 0.001878
vt 0.976457 0.001878
vt 0.976457 0.625268
vt 0.001992 0.625268
vt 0.001992 0.001878
vt 0.009784 0.001878
vt 0.009784 0.625268
vt 0.493323 0.625268
vt 0.493323 0.001878
vt 0.501115 0.001878
vt 0.501115 0.625268
vn 0.000000 0.000000 1.000000
vn 0.000000 0.000000 1.000000
vn 0.000000 0.000000 1.000000
vn 0.000000 0.000000 1.000000
vn 0.000000 1.000000 0.000000
vn 0.000000 1.000000 0.000000
vn 0.000000 1.000000 0.000000
vn 0.000000 1.000000 0.000000
vn 0.000000 0.000000 -1.000000
vn 0.000000 0.000000 -1.000000
vn 0.000000 0.000000 -1.000000
vn 0.000000 0.000000 -1.000000
vn 0.000000 -1.000000 0.000000
vn 0.000000 -1.000000 0.000000
vn 0.000000 -1.000000 0.000000
vn 0.000000 -1.000000 0.000000
vn 1.000000 0.000000 0.000000
vn 1.000000 0.000000 0.000000
vn 1.000000 0.000000 0.000000
vn 1.000000 0.000000 0.000000
vn -1.000000 0.000000 0.000000
vn -1.000000 0.000000 0.000000
vn -1.000000 0.000000 0.000000
vn -1.000000 0.000000 0.000000
s off
g pCube1
usemtl initialShadingGroup
f 1/17/1 2/18/2 4/19/3 3/20/4
f 3/9/5 4/10/6 6/11/7 5/12/8
f 5/21/9 6/22/10 8/23/11 7/24/12
f 7/13/13 8/14/14 2/15/15 1/16/16
f 2/1/17 8/2/18 6/3/19 4/4/20
f 7/5/21 1/6/22 3/7/23 5/8/24
